HIERARCHY
ROOT hip
{
	OFFSET 0.000000 0.000000 0.000000 
	CHANNELS 6 Xposition Yposition Zposition Xrotation Zrotation Yrotation
	JOINT abdomen
	{
		OFFSET 0.000000 3.402643 0.000000 
		CHANNELS 3 Xrotation Zrotation Yrotation
		JOINT chest
		{
			OFFSET 0.000000 8.438565 -0.680529 
			CHANNELS 3 Xrotation Zrotation Yrotation
			JOINT neck
			{
				OFFSET 0.000000 10.207942 -0.272212 
				CHANNELS 3 Xrotation Zrotation Yrotation
				JOINT head
				{
					OFFSET 0.000000 3.130431 0.000000 
					CHANNELS 3 Xrotation Zrotation Yrotation
					End Site
					{
						OFFSET 0.000000 3.130435 0.000000 
					}
				}
			}
			JOINT lCollar
			{
				OFFSET 3.470700 6.669187 -0.816635 
				CHANNELS 3 Yrotation Zrotation Xrotation
				JOINT lShldr
				{
					OFFSET 3.198488 0.000000 0.000000 
					CHANNELS 3 Zrotation Yrotation Xrotation
					JOINT lForeArm
					{
						OFFSET 10.139888 0.000000 0.000000 
						CHANNELS 3 Yrotation Zrotation Xrotation
						JOINT lHand
						{
							OFFSET 8.370511 0.000000 0.000000 
							CHANNELS 3 Zrotation Yrotation Xrotation
							End Site
							{
								OFFSET 4.083176 0.000000 0.000000 
							}
						}
					}
				}
			}
			JOINT rCollar
			{
				OFFSET -3.470700 6.669187 -0.816635 
				CHANNELS 3 Yrotation Zrotation Xrotation
				JOINT rShldr
				{
					OFFSET -3.198488 0.000000 0.000000 
					CHANNELS 3 Zrotation Yrotation Xrotation
					JOINT rForeArm
					{
						OFFSET -10.139888 0.000000 0.000000 
						CHANNELS 3 Yrotation Zrotation Xrotation
						JOINT rHand
						{
							OFFSET -8.370511 0.000000 0.000000 
							CHANNELS 3 Zrotation Yrotation Xrotation
							End Site
							{
								OFFSET -4.083176 0.000000 0.000000 
							}
						}
					}
				}
			}
		}
	}
	JOINT lThigh
	{
		OFFSET 5.308129 -1.633274 1.361059 
		CHANNELS 3 Xrotation Zrotation Yrotation
		JOINT lShin
		{
			OFFSET -2.041588 -20.007561 0.000000 
			CHANNELS 3 Xrotation Zrotation Yrotation
			JOINT lFoot
			{
				OFFSET 0.000000 -19.190928 -1.224953 
				CHANNELS 3 Xrotation Yrotation Zrotation
				End Site
				{
					OFFSET 0.000000 -2.449906 4.627600 
				}
			}
		}
	}
	JOINT rThigh
	{
		OFFSET -5.308129 -1.633274 1.361059 
		CHANNELS 3 Xrotation Zrotation Yrotation
		JOINT rShin
		{
			OFFSET 2.041588 -20.007561 0.000000 
			CHANNELS 3 Xrotation Zrotation Yrotation
			JOINT rFoot
			{
				OFFSET 0.000000 -19.190928 -1.224953 
				CHANNELS 3 Xrotation Yrotation Zrotation
				End Site
				{
					OFFSET 0.000000 -2.449906 4.627600 
				}
			}
		}
	}
}
MOTION
Frames: 10
Frame Time: 0.016667
-0.189801 48.461536 1.528651 1.453328 -5.384299 5.620418 25.668499 -0.751542 1.894624 -27.493561 6.139276 1.886175 -10.403258 4.318895 3.329995 7.970609 -10.023172 4.858123 -4.043017 -0.282515 -0.009741 -79.196518 9.118506 -1.655406 -19.168753 -0.031287 -1.595836 -11.714531 14.795272 -3.039253 16.035378 1.344959 -0.009612 76.123436 -14.589491 -18.852917 40.431908 -2.755041 31.990837 17.049589 2.685456 0.802863 -24.215723 7.020730 -3.511514 50.161652 -0.101308 -3.513510 -4.361805 1.944435 -11.989878 -3.824237 6.800190 -5.116226 19.800951 1.545167 1.837247 -19.928816 -0.100916 12.260662 
-0.095453 48.431747 2.338277 1.298949 -5.340868 5.020960 25.841871 -0.663502 2.353584 -28.107092 5.327778 2.295228 -8.454020 4.553320 3.233407 7.865717 -9.802001 4.666984 -4.609481 -0.624215 -0.009733 -78.922600 10.081011 -4.232383 -18.525690 0.068525 -0.583354 -11.977085 15.013489 -3.144306 16.816690 1.754987 -0.009643 75.881889 -14.032110 -18.495390 41.779556 -2.648821 30.481663 18.524113 1.703835 0.570828 -26.058279 6.824554 -3.600703 47.040394 -0.269334 -3.401009 -4.211263 1.693064 -12.017169 -2.722350 6.869776 -4.377378 19.830200 1.541894 1.848015 -20.656511 -0.027030 12.325521 
0.027456 48.347595 3.249921 1.027840 -5.295342 4.618691 25.884274 -0.497472 2.753972 -27.907068 4.721547 2.646253 -7.652941 4.358771 3.124771 7.846123 -9.512704 4.455028 -4.765793 -0.985517 -0.009730 -78.820450 10.266253 -6.678419 -17.847771 0.193585 0.976056 -12.228616 15.112964 -3.243232 17.217089 1.784219 -0.009628 75.665924 -13.064658 -17.968094 42.961205 -2.492551 28.680613 18.994326 0.280195 0.086167 -26.795029 6.669445 -4.193857 42.524002 -0.539822 -3.203886 -4.125761 1.175338 -12.051059 -1.551560 6.849671 -3.798019 20.526905 1.516236 1.880473 -22.661551 -0.151348 12.282248 
0.150357 48.263451 4.161505 0.756066 -5.249502 4.216420 25.938761 -0.331528 3.154301 -27.715179 4.115517 2.986247 -6.840645 4.164130 3.025915 7.814585 -9.223121 4.243194 -4.922105 -1.356584 -0.009727 -78.730370 10.462038 -9.113673 -17.170961 0.345209 2.519584 -12.477284 15.204459 -3.329243 17.617485 1.813451 -0.009612 75.457558 -12.090265 -17.449001 44.144684 -2.371810 26.877142 19.476862 -1.138407 -0.413046 -27.510305 6.492375 -4.762478 38.004921 -0.757895 -3.000818 -4.047858 0.653215 -12.096756 -0.399538 6.820686 -3.260452 21.223648 1.463658 1.947327 -24.679979 -0.314482 12.243463 
0.284693 48.118065 5.156706 0.411281 -5.309428 3.990964 26.003464 -0.038989 3.515625 -27.391857 3.617205 3.259022 -6.544449 3.833000 2.897210 8.001702 -8.914093 4.002564 -4.922155 -1.649553 -0.009726 -78.763817 10.536607 -11.365682 -16.542389 0.471066 4.111066 -12.535336 15.325542 -3.371172 17.783480 1.706002 -0.009586 75.376007 -11.278359 -16.982027 45.247456 -2.238745 25.458822 19.475187 -1.967121 -0.706063 -27.451256 6.444005 -6.213031 32.654366 -1.036784 -2.691375 -3.505629 0.529639 -12.097131 1.122110 6.857495 -2.798213 21.801014 1.453935 1.985462 -27.652098 -0.584222 12.153822 
0.419023 47.972683 6.151869 0.056553 -5.379049 3.766419 26.071899 0.253322 3.886767 -27.074940 3.109398 3.511286 -6.247362 3.501805 2.759498 8.177246 -8.614575 3.752390 -4.912438 -1.932758 -0.009724 -78.805672 10.614478 -13.617005 -15.912551 0.609709 5.694704 -12.590291 15.439164 -3.402090 17.949478 1.588787 -0.009558 75.302879 -10.462283 -16.519484 46.352577 -2.150775 24.032139 19.467976 -2.796052 -0.998456 -27.401680 6.395215 -7.643638 27.258680 -1.255659 -2.403364 -2.967165 0.436586 -12.126215 2.664194 6.879395 -2.331766 22.358929 1.434651 2.030560 -30.621885 -0.852243 12.024884 
0.572582 47.786461 7.234611 -0.257725 -5.369781 3.687725 25.895338 0.496747 4.140808 -26.606388 2.640961 3.705335 -5.954863 3.248557 2.621834 8.321225 -8.285398 3.512001 -4.932009 -2.167130 -0.009723 -78.869232 10.546006 -16.021139 -15.112917 0.759302 7.473991 -12.705694 15.499448 -3.447771 18.047112 1.461818 -0.009531 75.452530 -9.874091 -16.353153 47.284874 -2.086732 23.384260 19.543089 -3.153785 -1.129541 -26.873032 6.591488 -7.398423 22.219463 -1.435972 -2.091728 -2.724940 -0.627166 -12.187736 4.389890 6.789125 -1.968483 22.720741 1.434693 2.049391 -33.406780 -1.134341 11.860881 
0.726146 47.600235 8.317368 -0.581795 -5.360501 3.609032 25.711788 0.749752 4.385157 -26.142040 2.162980 3.889842 -5.661570 2.985479 2.484221 8.461611 -7.946084 3.282797 -4.942219 -2.390896 -0.019442 -78.925476 10.477836 -18.422201 -14.315152 0.934813 9.257212 -12.823224 15.547925 -3.500783 18.144533 1.337891 -0.000228 75.591995 -9.280033 -16.184982 48.216179 -2.035570 22.731609 19.618845 -3.501994 -1.257689 -26.344845 6.776675 -7.168307 17.180042 -1.591729 -1.764447 -2.488970 -1.670553 -12.278877 6.121083 6.696983 -1.607125 23.092510 1.424951 2.076681 -36.192635 -1.406000 11.685208 
0.911100 47.402214 9.530002 -0.962732 -5.125634 3.774373 25.343468 0.778922 4.424348 -25.504017 1.753646 3.947346 -5.433683 2.810223 2.307660 8.522022 -7.479924 3.023363 -4.971131 -2.518685 -0.009719 -79.013885 10.334308 -20.944496 -13.456942 1.077926 11.179032 -12.941618 15.808438 -3.591127 18.134962 1.198132 -0.009483 75.925766 -8.995173 -16.204853 48.874271 -2.011076 22.505394 19.723063 -3.343355 -1.208314 -25.785696 6.493245 -7.003156 14.092951 -1.669406 -1.561761 -2.542871 -1.925510 -12.279011 7.985862 6.316309 -1.484247 23.474907 1.405380 2.092882 -38.206150 -1.513067 11.567725 
1.096054 47.204189 10.742646 -1.331711 -4.890870 3.930043 24.966042 0.817836 4.453646 -24.857285 1.344382 3.995331 -5.214398 2.625122 2.141347 8.576964 -7.013335 2.773826 -4.990684 -2.645635 -0.009718 -79.090752 10.189599 -23.472593 -12.609305 1.256234 13.094384 -13.070730 16.068045 -3.685134 18.125172 1.061415 -0.009460 76.259682 -8.712705 -16.231504 49.531071 -1.989318 22.275728 19.826710 -3.179038 -1.145861 -25.230013 6.200469 -6.858434 11.013817 -1.728345 -1.364219 -2.597036 -2.137297 -12.324859 9.840173 5.935136 -1.384148 23.865774 1.395567 2.130772 -40.196140 -1.625779 11.474426 
